<svg width="32" height="33" viewBox="0 0 32 33" fill="none" xmlns="http://www.w3.org/2000/svg">
<g clip-path="url(#clip0_31_794)">
<path d="M24.5 0.842041H7.5C3.35786 0.842041 0 4.19991 0 8.34204V25.342C0 29.4842 3.35786 32.842 7.5 32.842H24.5C28.6421 32.842 32 29.4842 32 25.342V8.34204C32 4.19991 28.6421 0.842041 24.5 0.842041Z" fill="url(#paint0_radial_31_794)"/>
<path d="M24.5 0.842041H7.5C3.35786 0.842041 0 4.19991 0 8.34204V25.342C0 29.4842 3.35786 32.842 7.5 32.842H24.5C28.6421 32.842 32 29.4842 32 25.342V8.34204C32 4.19991 28.6421 0.842041 24.5 0.842041Z" fill="url(#paint1_radial_31_794)"/>
<path d="M16.0011 4.34204C12.6064 4.34204 12.1803 4.35692 10.847 4.41754C9.51625 4.47854 8.60787 4.68917 7.81313 4.99829C6.99088 5.31754 6.2935 5.74467 5.59875 6.43967C4.90338 7.13454 4.47625 7.83192 4.156 8.65379C3.846 9.44879 3.63512 10.3575 3.57525 11.6877C3.51562 13.021 3.5 13.4473 3.5 16.8422C3.5 20.237 3.515 20.6618 3.5755 21.995C3.63675 23.3258 3.84738 24.2342 4.15625 25.0289C4.47575 25.8512 4.90288 26.5485 5.59788 27.2433C6.2925 27.9387 6.98988 28.3668 7.8115 28.686C8.60687 28.9952 9.51537 29.2058 10.8459 29.2668C12.1792 29.3274 12.605 29.3423 15.9996 29.3423C19.3948 29.3423 19.8195 29.3274 21.1528 29.2668C22.4835 29.2058 23.3929 28.9952 24.1882 28.686C25.0101 28.3668 25.7065 27.9387 26.401 27.2433C27.0964 26.5485 27.5234 25.8512 27.8438 25.0293C28.151 24.2342 28.362 23.3255 28.4245 21.9953C28.4844 20.662 28.5 20.237 28.5 16.8422C28.5 13.4473 28.4844 13.0213 28.4245 11.6879C28.362 10.3572 28.151 9.44892 27.8438 8.65417C27.5234 7.83192 27.0964 7.13454 26.401 6.43967C25.7057 5.74442 25.0104 5.31729 24.1875 4.99842C23.3906 4.68917 22.4817 4.47842 21.151 4.41754C19.8176 4.35692 19.3931 4.34204 15.9972 4.34204H16.0011ZM14.8798 6.59467C15.2126 6.59417 15.584 6.59467 16.0011 6.59467C19.3388 6.59467 19.7342 6.60667 21.0522 6.66654C22.271 6.72229 22.9325 6.92592 23.3731 7.09704C23.9565 7.32354 24.3724 7.59442 24.8096 8.03204C25.2471 8.46954 25.5179 8.88617 25.745 9.46954C25.9161 9.90954 26.12 10.571 26.1755 11.7898C26.2354 13.1075 26.2484 13.5033 26.2484 16.8393C26.2484 20.1753 26.2354 20.5712 26.1755 21.8888C26.1198 23.1075 25.9161 23.769 25.745 24.2092C25.5185 24.7925 25.2471 25.2079 24.8096 25.6452C24.3721 26.0827 23.9568 26.3534 23.3731 26.58C22.933 26.7519 22.271 26.955 21.0522 27.0108C19.7345 27.0707 19.3388 27.0837 16.0011 27.0837C12.6634 27.0837 12.2677 27.0707 10.9501 27.0108C9.73137 26.9545 9.06987 26.7509 8.62887 26.5798C8.04562 26.3532 7.62887 26.0824 7.19137 25.6449C6.75387 25.2074 6.48312 24.7918 6.256 24.2082C6.08488 23.768 5.881 23.1065 5.8255 21.8878C5.76562 20.57 5.75362 20.1743 5.75362 16.8362C5.75362 13.4982 5.76562 13.1044 5.8255 11.7867C5.88125 10.5679 6.08488 9.90642 6.256 9.46579C6.48263 8.88242 6.75388 8.46579 7.1915 8.02829C7.629 7.59079 8.04562 7.31992 8.629 7.09292C9.06962 6.92104 9.73137 6.71792 10.9501 6.66192C12.1032 6.60979 12.5501 6.59417 14.8798 6.59154V6.59467ZM22.6736 8.67017C21.8455 8.67017 21.1736 9.34142 21.1736 10.1697C21.1736 10.9978 21.8455 11.6697 22.6736 11.6697C23.5018 11.6697 24.1736 10.9978 24.1736 10.1697C24.1736 9.34154 23.5018 8.66967 22.6736 8.66967V8.67017ZM16.0011 10.4228C12.4561 10.4228 9.58187 13.297 9.58187 16.8422C9.58187 20.3873 12.4561 23.2602 16.0011 23.2602C19.5462 23.2602 22.4195 20.3873 22.4195 16.8422C22.4195 13.2972 19.546 10.4228 16.0009 10.4228H16.0011ZM16.0011 12.6754C18.3022 12.6754 20.1679 14.5408 20.1679 16.8422C20.1679 19.1433 18.3022 21.0089 16.0011 21.0089C13.6999 21.0089 11.8345 19.1433 11.8345 16.8422C11.8345 14.5408 13.6999 12.6754 16.0011 12.6754Z" fill="white"/>
</g>
<defs>
<radialGradient id="paint0_radial_31_794" cx="0" cy="0" r="1" gradientUnits="userSpaceOnUse" gradientTransform="translate(8.5 35.3067) rotate(-90) scale(31.7144 29.4969)">
<stop stop-color="#FFDD55"/>
<stop offset="0.1" stop-color="#FFDD55"/>
<stop offset="0.5" stop-color="#FF543E"/>
<stop offset="1" stop-color="#C837AB"/>
</radialGradient>
<radialGradient id="paint1_radial_31_794" cx="0" cy="0" r="1" gradientUnits="userSpaceOnUse" gradientTransform="translate(-5.36012 3.14717) rotate(78.681) scale(14.1765 58.436)">
<stop stop-color="#3771C8"/>
<stop offset="0.128" stop-color="#3771C8"/>
<stop offset="1" stop-color="#6600FF" stop-opacity="0"/>
</radialGradient>
<clipPath id="clip0_31_794">
<rect width="32" height="32" fill="white" transform="translate(0 0.842041)"/>
</clipPath>
</defs>
</svg>
