<svg width="32" height="33" viewBox="0 0 32 33" fill="none" xmlns="http://www.w3.org/2000/svg">
<g clip-path="url(#clip0_31_799)">
<path d="M24.5 0.842041H7.5C3.35786 0.842041 0 4.19991 0 8.34204V25.342C0 29.4842 3.35786 32.842 7.5 32.842H24.5C28.6421 32.842 32 29.4842 32 25.342V8.34204C32 4.19991 28.6421 0.842041 24.5 0.842041Z" fill="white"/>
<path d="M24.5 0.842041H7.5C3.35786 0.842041 0 4.19991 0 8.34204V25.342C0 29.4842 3.35786 32.842 7.5 32.842H24.5C28.6421 32.842 32 29.4842 32 25.342V8.34204C32 4.19991 28.6421 0.842041 24.5 0.842041Z" fill="#1D9BF0"/>
<path d="M24.9465 12.2684C24.9603 12.4668 24.9603 12.6652 24.9603 12.8654C24.9603 18.965 20.3168 25.9998 11.8259 25.9998V25.996C9.31752 25.9997 6.86113 25.2813 4.75 23.9267C5.11475 23.9705 5.48125 23.9924 5.84875 23.9933C7.92771 23.9949 9.94685 23.2976 11.5817 22.0134C10.6185 21.9952 9.68501 21.6764 8.9118 21.1017C8.13859 20.5269 7.56431 19.7249 7.26925 18.8078C7.96085 18.9411 8.67382 18.9139 9.35325 18.7283C7.19975 18.2932 5.65037 16.401 5.65037 14.2035V14.145C6.29236 14.5026 7.01085 14.7008 7.74538 14.7228C5.71713 13.3672 5.09188 10.6688 6.31663 8.55904C7.47554 9.98516 8.92149 11.1515 10.5606 11.9824C12.1996 12.8133 13.9952 13.2901 15.8305 13.3818C15.6475 12.5941 15.6745 11.7721 15.9089 10.9982C16.1432 10.2242 16.5767 9.52531 17.1659 8.97141C19.0251 7.22366 21.9493 7.31329 23.697 9.17154C24.7308 8.96744 25.7221 8.58846 26.6284 8.05091C26.2838 9.11974 25.5626 10.027 24.5991 10.6039C25.5142 10.4961 26.4078 10.2511 27.25 9.87729C26.6305 10.805 25.8505 11.6147 24.9465 12.2684Z" fill="white"/>
</g>
<defs>
<clipPath id="clip0_31_799">
<rect width="32" height="32" fill="white" transform="translate(0 0.842041)"/>
</clipPath>
</defs>
</svg>
