<svg width="13" height="12" viewBox="0 0 13 12" fill="none" xmlns="http://www.w3.org/2000/svg">
<g clip-path="url(#clip0_31_820)">
<path fill-rule="evenodd" clip-rule="evenodd" d="M0.875 7.42493C0.974456 7.42493 1.06984 7.46444 1.14017 7.53476C1.21049 7.60509 1.25 7.70047 1.25 7.79993V9.67493C1.25 9.87384 1.32902 10.0646 1.46967 10.2053C1.61032 10.3459 1.80109 10.4249 2 10.4249H11C11.1989 10.4249 11.3897 10.3459 11.5303 10.2053C11.671 10.0646 11.75 9.87384 11.75 9.67493V7.79993C11.75 7.70047 11.7895 7.60509 11.8598 7.53476C11.9302 7.46444 12.0255 7.42493 12.125 7.42493C12.2245 7.42493 12.3198 7.46444 12.3902 7.53476C12.4605 7.60509 12.5 7.70047 12.5 7.79993V9.67493C12.5 10.0728 12.342 10.4543 12.0607 10.7356C11.7794 11.0169 11.3978 11.1749 11 11.1749H2C1.60218 11.1749 1.22064 11.0169 0.93934 10.7356C0.658035 10.4543 0.5 10.0728 0.5 9.67493V7.79993C0.5 7.70047 0.539509 7.60509 0.609835 7.53476C0.680161 7.46444 0.775544 7.42493 0.875 7.42493Z" fill="white"/>
<path fill-rule="evenodd" clip-rule="evenodd" d="M6.23497 0.859438C6.26981 0.824515 6.31119 0.796808 6.35675 0.777904C6.40231 0.758999 6.45115 0.749268 6.50047 0.749268C6.5498 0.749268 6.59864 0.758999 6.6442 0.777904C6.68976 0.796808 6.73114 0.824515 6.76597 0.859438L9.01597 3.10944C9.08639 3.17985 9.12595 3.27536 9.12595 3.37494C9.12595 3.47452 9.08639 3.57002 9.01597 3.64044C8.94556 3.71085 8.85006 3.75041 8.75047 3.75041C8.65089 3.75041 8.55539 3.71085 8.48497 3.64044L6.87547 2.03019V8.62494C6.87547 8.72439 6.83597 8.81978 6.76564 8.8901C6.69531 8.96043 6.59993 8.99994 6.50047 8.99994C6.40102 8.99994 6.30563 8.96043 6.23531 8.8901C6.16498 8.81978 6.12547 8.72439 6.12547 8.62494V2.03019L4.51597 3.64044C4.48111 3.6753 4.43972 3.70296 4.39416 3.72183C4.34861 3.7407 4.29978 3.75041 4.25047 3.75041C4.20117 3.75041 4.15234 3.7407 4.10679 3.72183C4.06123 3.70296 4.01984 3.6753 3.98497 3.64044C3.95011 3.60557 3.92245 3.56418 3.90358 3.51863C3.88471 3.47307 3.875 3.42425 3.875 3.37494C3.875 3.32563 3.88471 3.2768 3.90358 3.23125C3.92245 3.1857 3.95011 3.1443 3.98497 3.10944L6.23497 0.859438Z" fill="white"/>
</g>
<defs>
<clipPath id="clip0_31_820">
<rect width="12" height="12" fill="white" transform="translate(0.5)"/>
</clipPath>
</defs>
</svg>
